<svg xmlns="http://www.w3.org/2000/svg" viewBox="0 0 100 100" width="100" height="100">
  <rect width="100" height="100" fill="#ffffff" rx="4"/>
  <rect x="8" y="8" width="21" height="21" fill="#E1306C" rx="2"/>
  <rect x="11" y="11" width="15" height="15" fill="#fff" rx="1"/>
  <rect x="14" y="14" width="9" height="9" fill="#E1306C" rx="1"/>
  <rect x="71" y="8" width="21" height="21" fill="#E1306C" rx="2"/>
  <rect x="74" y="11" width="15" height="15" fill="#fff" rx="1"/>
  <rect x="77" y="14" width="9" height="9" fill="#E1306C" rx="1"/>
  <rect x="8" y="71" width="21" height="21" fill="#E1306C" rx="2"/>
  <rect x="11" y="74" width="15" height="15" fill="#fff" rx="1"/>
  <rect x="14" y="77" width="9" height="9" fill="#E1306C" rx="1"/>
  <rect x="35" y="8" width="6" height="6" fill="#E1306C"/>
  <rect x="53" y="8" width="6" height="6" fill="#E1306C"/>
  <rect x="62" y="8" width="6" height="6" fill="#E1306C"/>
  <rect x="44" y="17" width="6" height="6" fill="#E1306C"/>
  <rect x="62" y="17" width="6" height="6" fill="#E1306C"/>
  <rect x="35" y="26" width="6" height="6" fill="#E1306C"/>
  <rect x="53" y="26" width="6" height="6" fill="#E1306C"/>
  <rect x="8" y="35" width="6" height="6" fill="#E1306C"/>
  <rect x="26" y="35" width="6" height="6" fill="#E1306C"/>
  <rect x="44" y="35" width="6" height="6" fill="#E1306C"/>
  <rect x="62" y="35" width="6" height="6" fill="#E1306C"/>
  <rect x="80" y="35" width="6" height="6" fill="#E1306C"/>
  <rect x="17" y="44" width="6" height="6" fill="#E1306C"/>
  <rect x="35" y="44" width="6" height="6" fill="#E1306C"/>
  <rect x="53" y="44" width="6" height="6" fill="#E1306C"/>
  <rect x="71" y="44" width="6" height="6" fill="#E1306C"/>
  <rect x="8" y="53" width="6" height="6" fill="#E1306C"/>
  <rect x="26" y="53" width="6" height="6" fill="#E1306C"/>
  <rect x="44" y="53" width="6" height="6" fill="#E1306C"/>
  <rect x="80" y="53" width="6" height="6" fill="#E1306C"/>
  <rect x="35" y="62" width="6" height="6" fill="#E1306C"/>
  <rect x="53" y="62" width="6" height="6" fill="#E1306C"/>
  <rect x="71" y="62" width="6" height="6" fill="#E1306C"/>
  <rect x="44" y="71" width="6" height="6" fill="#E1306C"/>
  <rect x="62" y="71" width="6" height="6" fill="#E1306C"/>
  <rect x="80" y="71" width="6" height="6" fill="#E1306C"/>
  <rect x="35" y="80" width="6" height="6" fill="#E1306C"/>
  <rect x="53" y="80" width="6" height="6" fill="#E1306C"/>
  <rect x="71" y="80" width="6" height="6" fill="#E1306C"/>
</svg>
